<svg aria-hidden="true" style="position: absolute; width: 0; height: 0; overflow: hidden;" version="1.1" xmlns="http://www.w3.org/2000/svg" xmlns:xlink="http://www.w3.org/1999/xlink">
<defs>
<symbol id="icon-iconmonstr-weather-115" viewBox="0 0 32 32">
<path d="M14.292 2.776c-3.429 2.704-6.292 6.949-6.292 13.224 0 6.092 2.584 10.397 6.064 13.193-6.439-0.94-11.397-6.499-11.397-13.193 0-6.773 5.077-12.384 11.625-13.224zM16 0c-8.823 0-16 7.177-16 16s7.177 16 16 16c2.525 0 5.16-0.444 7.16-1.572-4.604-0.817-12.493-4.489-12.493-14.428 0-10.073 8.563-13.756 12.493-14.428-2.32-0.909-4.635-1.572-7.16-1.572zM16 14.665c1.916 0.584 3.416 2.085 3.999 4.001 0.587-1.916 2.087-3.416 4.001-4-1.915-0.585-3.415-2.084-4.001-4-0.583 1.915-2.083 3.415-3.999 3.999zM26.668 14.667c1.277 0.391 2.276 1.389 2.667 2.668 0.388-1.279 1.389-2.279 2.665-2.668-1.276-0.389-2.276-1.389-2.667-2.667-0.391 1.277-1.389 2.277-2.665 2.667zM25.335 2.667c-0.583 1.916-2.084 3.416-3.997 4.001 1.917 0.587 3.415 2.085 4.001 4.003 0.583-1.917 2.084-3.417 3.995-4.003-1.911-0.583-3.412-2.085-3.999-4.001z"></path>
</symbol>
<symbol id="icon-iconmonstr-weather-2-1" viewBox="0 0 32 32">
<path d="M5.425 17.333h-5.425v-2.667h5.425c-0.055 0.437-0.092 0.881-0.092 1.333s0.037 0.896 0.092 1.333zM9.471 7.584l-3.841-3.841-1.885 1.885 3.841 3.841c0.548-0.705 1.18-1.337 1.885-1.885zM24.416 9.469l3.841-3.841-1.885-1.885-3.841 3.841c0.704 0.548 1.336 1.181 1.885 1.885zM16 5.333c0.452 0 0.896 0.037 1.333 0.092v-5.425h-2.667v5.425c0.437-0.055 0.881-0.092 1.333-0.092zM16 26.667c-0.452 0-0.896-0.037-1.333-0.092v5.425h2.667v-5.425c-0.437 0.055-0.881 0.092-1.333 0.092zM26.575 14.667c0.055 0.437 0.092 0.881 0.092 1.333s-0.037 0.896-0.092 1.333h5.425v-2.667h-5.425zM22.531 24.416l3.84 3.84 1.887-1.885-3.84-3.84c-0.549 0.704-1.181 1.336-1.887 1.885zM7.584 22.529l-3.84 3.84 1.885 1.885 3.84-3.84c-0.704-0.548-1.337-1.18-1.885-1.885zM10.667 16c0 2.941 2.392 5.333 5.333 5.333s5.333-2.392 5.333-5.333-2.392-5.333-5.333-5.333-5.333 2.392-5.333 5.333zM24 16c0 4.419-3.581 8-8 8s-8-3.581-8-8 3.581-8 8-8 8 3.581 8 8z"></path>
</symbol>
<symbol id="icon-iconmonstr-brightness-2" viewBox="0 0 32 32">
<path d="M22.667 16c0 3.683-2.984 6.667-6.667 6.667s-6.667-2.984-6.667-6.667 2.984-6.667 6.667-6.667 6.667 2.984 6.667 6.667zM10.421 8.535l-4.792-4.792-1.885 1.885 4.792 4.793c0.536-0.716 1.171-1.351 1.885-1.887zM16 6.667c0.453 0 0.896 0.044 1.333 0.107v-6.773h-2.667v6.773c0.437-0.063 0.88-0.107 1.333-0.107zM23.464 10.42l4.792-4.793-1.885-1.885-4.792 4.793c0.715 0.536 1.349 1.171 1.885 1.885zM6.667 16c0-0.453 0.044-0.896 0.107-1.333h-6.773v2.667h6.773c-0.063-0.437-0.107-0.88-0.107-1.333zM21.58 23.464l4.792 4.791 1.887-1.885-4.792-4.792c-0.537 0.716-1.172 1.351-1.887 1.887zM8.535 21.579l-4.791 4.791 1.885 1.885 4.791-4.791c-0.715-0.536-1.348-1.169-1.885-1.885zM25.227 14.667c0.063 0.437 0.107 0.88 0.107 1.333s-0.044 0.896-0.107 1.333h6.773v-2.667h-6.773zM16 25.333c-0.453 0-0.896-0.044-1.333-0.107v6.773h2.667v-6.773c-0.437 0.063-0.88 0.107-1.333 0.107z"></path>
</symbol>
<symbol id="icon-iconmonstr-brightness-9" viewBox="0 0 32 32">
<path d="M29.451 17.501l2.549-1.501-2.549-1.501c-1.361-0.803-1.829-2.547-1.051-3.923l1.457-2.576-2.96-0.027c-1.58-0.013-2.857-1.291-2.871-2.871l-0.027-2.959-2.576 1.457c-1.375 0.777-3.12 0.311-3.921-1.051l-1.503-2.551-1.503 2.551c-0.803 1.361-2.547 1.829-3.921 1.051l-2.576-1.457-0.027 2.959c-0.013 1.58-1.291 2.857-2.871 2.871l-2.96 0.027 1.457 2.576c0.779 1.376 0.311 3.12-1.051 3.923l-2.549 1.501 2.549 1.501c1.361 0.803 1.829 2.547 1.051 3.923l-1.457 2.576 2.96 0.027c1.58 0.013 2.857 1.291 2.871 2.871l0.027 2.959 2.576-1.457c1.375-0.777 3.12-0.311 3.921 1.051l1.503 2.551 1.503-2.551c0.803-1.361 2.547-1.829 3.921-1.051l2.576 1.457 0.027-2.959c0.015-1.58 1.292-2.857 2.871-2.871l2.96-0.027-1.457-2.576c-0.779-1.375-0.312-3.12 1.051-3.923zM15.961 26.667c-5.881 0-10.667-4.785-10.667-10.667s4.784-10.667 10.667-10.667 10.667 4.785 10.667 10.667-4.785 10.667-10.667 10.667zM24 16c0 4.417-3.583 8-8 8s-8-3.583-8-8 3.583-8 8-8 8 3.583 8 8z"></path>
</symbol>
<symbol id="icon-iconmonstr-weather-1" viewBox="0 0 32 32">
<path d="M5.425 17.333h-5.425v-2.667h5.425c-0.055 0.437-0.092 0.881-0.092 1.333s0.037 0.896 0.092 1.333zM9.471 7.584l-3.841-3.841-1.885 1.885 3.841 3.841c0.548-0.705 1.18-1.337 1.885-1.885zM24.416 9.469l3.841-3.841-1.885-1.885-3.841 3.841c0.704 0.548 1.336 1.181 1.885 1.885zM16 5.333c0.452 0 0.896 0.037 1.333 0.092v-5.425h-2.667v5.425c0.437-0.055 0.881-0.092 1.333-0.092zM16 26.667c-0.452 0-0.896-0.037-1.333-0.092v5.425h2.667v-5.425c-0.437 0.055-0.881 0.092-1.333 0.092zM26.575 14.667c0.055 0.437 0.092 0.881 0.092 1.333s-0.037 0.896-0.092 1.333h5.425v-2.667h-5.425zM22.531 24.416l3.84 3.84 1.887-1.885-3.84-3.84c-0.549 0.704-1.181 1.336-1.887 1.885zM7.584 22.529l-3.84 3.84 1.885 1.885 3.84-3.84c-0.704-0.548-1.337-1.18-1.885-1.885zM16 8c-4.419 0-8 3.581-8 8s3.581 8 8 8 8-3.581 8-8-3.581-8-8-8z"></path>
</symbol>
<symbol id="icon-iconmonstr-weather-2" viewBox="0 0 32 32">
<path d="M5.425 17.333h-5.425v-2.667h5.425c-0.055 0.437-0.092 0.881-0.092 1.333s0.037 0.896 0.092 1.333zM9.471 7.584l-3.841-3.841-1.885 1.885 3.841 3.841c0.548-0.705 1.18-1.337 1.885-1.885zM24.416 9.469l3.841-3.841-1.885-1.885-3.841 3.841c0.704 0.548 1.336 1.181 1.885 1.885zM16 5.333c0.452 0 0.896 0.037 1.333 0.092v-5.425h-2.667v5.425c0.437-0.055 0.881-0.092 1.333-0.092zM16 26.667c-0.452 0-0.896-0.037-1.333-0.092v5.425h2.667v-5.425c-0.437 0.055-0.881 0.092-1.333 0.092zM26.575 14.667c0.055 0.437 0.092 0.881 0.092 1.333s-0.037 0.896-0.092 1.333h5.425v-2.667h-5.425zM22.531 24.416l3.84 3.84 1.887-1.885-3.84-3.84c-0.549 0.704-1.181 1.336-1.887 1.885zM7.584 22.529l-3.84 3.84 1.885 1.885 3.84-3.84c-0.704-0.548-1.337-1.18-1.885-1.885zM10.667 16c0 2.941 2.392 5.333 5.333 5.333s5.333-2.392 5.333-5.333-2.392-5.333-5.333-5.333-5.333 2.392-5.333 5.333zM24 16c0 4.419-3.581 8-8 8s-8-3.581-8-8 3.581-8 8-8 8 3.581 8 8z"></path>
</symbol>
<symbol id="icon-iconmonstr-weather-111" viewBox="0 0 32 32">
<path d="M0 16c0 8.836 7.164 16 16 16s16-7.164 16-16-7.164-16-16-16-16 7.164-16 16zM2.667 16c0-7.056 5.484-12.816 12.42-13.287-4.273 2.872-7.087 7.751-7.087 13.287s2.813 10.415 7.087 13.287c-6.936-0.471-12.42-6.231-12.42-13.287z"></path>
</symbol>
<symbol id="icon-iconmonstr-weather-114" viewBox="0 0 32 32">
<path d="M16 14.665c1.916 0.584 3.416 2.085 3.999 4.001 0.587-1.916 2.087-3.416 4.001-4-1.915-0.585-3.415-2.084-4.001-4-0.583 1.915-2.083 3.415-3.999 3.999zM26.668 14.667c1.277 0.391 2.276 1.389 2.667 2.668 0.388-1.279 1.389-2.279 2.665-2.668-1.276-0.389-2.276-1.389-2.667-2.667-0.391 1.277-1.389 2.277-2.665 2.667zM25.335 2.667c-0.583 1.916-2.084 3.416-3.997 4.001 1.917 0.587 3.415 2.085 4.001 4.003 0.583-1.917 2.084-3.417 3.995-4.003-1.911-0.583-3.412-2.085-3.999-4.001zM16 32c-8.823 0-16-7.177-16-16s7.177-16 16-16c2.525 0 4.84 0.663 7.16 1.572-3.931 0.672-12.493 4.355-12.493 14.428 0 9.939 7.889 13.611 12.493 14.428-2 1.128-4.635 1.572-7.16 1.572z"></path>
</symbol>
</defs>
</svg>
